<?xml version="1.0" encoding="UTF-8" standalone="no"?>
<!-- Created with Inkscape (http://www.inkscape.org/) -->

<svg
   xmlns:dc="http://purl.org/dc/elements/1.1/"
   xmlns:cc="http://creativecommons.org/ns#"
   xmlns:rdf="http://www.w3.org/1999/02/22-rdf-syntax-ns#"
   xmlns:svg="http://www.w3.org/2000/svg"
   xmlns="http://www.w3.org/2000/svg"
   xmlns:sodipodi="http://sodipodi.sourceforge.net/DTD/sodipodi-0.dtd"
   xmlns:inkscape="http://www.inkscape.org/namespaces/inkscape"
   id="svg2"
   version="1.1"
   inkscape:version="0.91 r13725"
   xml:space="preserve"
   width="318.75"
   height="126.25"
   viewBox="0 0 318.75 126.25"
   sodipodi:docname="EnPT_logo_final.svg"><metadata
     id="metadata8"><rdf:RDF><cc:Work
         rdf:about=""><dc:format>image/svg+xml</dc:format><dc:type
           rdf:resource="http://purl.org/dc/dcmitype/StillImage" /><dc:title></dc:title></cc:Work></rdf:RDF></metadata><defs
     id="defs6" /><sodipodi:namedview
     pagecolor="#ffffff"
     bordercolor="#666666"
     borderopacity="1"
     objecttolerance="10"
     gridtolerance="10"
     guidetolerance="10"
     inkscape:pageopacity="0"
     inkscape:pageshadow="2"
     inkscape:window-width="1690"
     inkscape:window-height="1075"
     id="namedview4"
     showgrid="false"
     fit-margin-top="0"
     fit-margin-left="0"
     fit-margin-right="0"
     fit-margin-bottom="0"
     inkscape:zoom="2.6970053"
     inkscape:cx="155.87783"
     inkscape:cy="64.047746"
     inkscape:window-x="0"
     inkscape:window-y="0"
     inkscape:window-maximized="0"
     inkscape:current-layer="g10" /><g
     id="g10"
     inkscape:groupmode="layer"
     inkscape:label="EnPT_logo_final"
     transform="matrix(1.25,0,0,-1.25,-216.39712,930.45675)"><g
       id="g12"
       transform="translate(-1692,-1584)"><path
         d="m 1951.1177,2232.3654 40,0 0,-5 -40,0 0,5 z"
         style="fill:#62496e;fill-opacity:1;fill-rule:nonzero;stroke:none"
         id="path14"
         inkscape:connector-curvature="0" /><path
         d="m 1865.1177,2240.3654 40,0 0,-5 -40,0 0,5 z"
         style="fill:#6e6e6e;fill-opacity:1;fill-rule:nonzero;stroke:none"
         id="path16"
         inkscape:connector-curvature="0" /><path
         d="m 2080.1177,2240.3654 40,0 0,-5 -40,0 0,5 z"
         style="fill:#334ea6;fill-opacity:1;fill-rule:nonzero;stroke:none"
         id="path18"
         inkscape:connector-curvature="0" /><path
         d="m 2080.1177,2248.3654 40,0 0,-5 -40,0 0,5 z"
         style="fill:#0081cc;fill-opacity:1;fill-rule:nonzero;stroke:none"
         id="path20"
         inkscape:connector-curvature="0" /><path
         d="m 2080.1177,2256.3654 40,0 0,-5 -40,0 0,5 z"
         style="fill:#00a9ed;fill-opacity:1;fill-rule:nonzero;stroke:none"
         id="path22"
         inkscape:connector-curvature="0" /><path
         d="m 2080.1177,2264.3654 40,0 0,-5 -40,0 0,5 z"
         style="fill:#11b4bb;fill-opacity:1;fill-rule:nonzero;stroke:none"
         id="path24"
         inkscape:connector-curvature="0" /><path
         d="m 2080.1177,2272.3654 40,0 0,-5 -40,0 0,5 z"
         style="fill:#2fbb89;fill-opacity:1;fill-rule:nonzero;stroke:none"
         id="path26"
         inkscape:connector-curvature="0" /><path
         d="m 2080.1177,2280.3654 40,0 0,-5 -40,0 0,5 z"
         style="fill:#7dc459;fill-opacity:1;fill-rule:nonzero;stroke:none"
         id="path28"
         inkscape:connector-curvature="0" /><path
         d="m 2080.1177,2288.3654 40,0 0,-5 -40,0 0,5 z"
         style="fill:#bac833;fill-opacity:1;fill-rule:nonzero;stroke:none"
         id="path30"
         inkscape:connector-curvature="0" /><path
         d="m 2080.1177,2296.3654 40,0 0,-5 -40,0 0,5 z"
         style="fill:#fed60b;fill-opacity:1;fill-rule:nonzero;stroke:none"
         id="path32"
         inkscape:connector-curvature="0" /><path
         d="m 2080.1177,2304.3654 40,0 0,-5 -40,0 0,5 z"
         style="fill:#fba00e;fill-opacity:1;fill-rule:nonzero;stroke:none"
         id="path34"
         inkscape:connector-curvature="0" /><path
         d="m 2080.1177,2312.3654 40,0 0,-5 -40,0 0,5 z"
         style="fill:#ef6623;fill-opacity:1;fill-rule:nonzero;stroke:none"
         id="path36"
         inkscape:connector-curvature="0" /><path
         d="m 2037.1177,2304.3654 40,0 0,-5 -40,0 0,5 z"
         style="fill:#e99c20;fill-opacity:1;fill-rule:nonzero;stroke:none"
         id="path38"
         inkscape:connector-curvature="0" /><path
         d="m 2037.1177,2312.3654 40,0 0,-5 -40,0 0,5 z"
         style="fill:#d86f3b;fill-opacity:1;fill-rule:nonzero;stroke:none"
         id="path40"
         inkscape:connector-curvature="0" /><path
         d="m 2037.1177,2320.3654 40,0 0,-5 -40,0 0,5 z"
         style="fill:#da2f35;fill-opacity:1;fill-rule:nonzero;stroke:none"
         id="path42"
         inkscape:connector-curvature="0" /><path
         d="m 1994.1177,2304.3654 40,0 0,-5 -40,0 0,5 z"
         style="fill:#cf963a;fill-opacity:1;fill-rule:nonzero;stroke:none"
         id="path44"
         inkscape:connector-curvature="0" /><path
         d="m 1994.1177,2312.3654 40,0 0,-5 -40,0 0,5 z"
         style="fill:#c7754d;fill-opacity:1;fill-rule:nonzero;stroke:none"
         id="path46"
         inkscape:connector-curvature="0" /><path
         d="m 1951.1177,2296.3654 40,0 0,-5 -40,0 0,5 z"
         style="fill:#b6a554;fill-opacity:1;fill-rule:nonzero;stroke:none"
         id="path48"
         inkscape:connector-curvature="0" /><path
         d="m 1908.1177,2304.3654 40,0 0,-5 -40,0 0,5 z"
         style="fill:#9d8a6c;fill-opacity:1;fill-rule:nonzero;stroke:none"
         id="path50"
         inkscape:connector-curvature="0" /><path
         d="m 1908.1177,2312.3654 40,0 0,-5 -40,0 0,5 z"
         style="fill:#9e8376;fill-opacity:1;fill-rule:nonzero;stroke:none"
         id="path52"
         inkscape:connector-curvature="0" /><path
         d="m 1908.1177,2320.3654 40,0 0,-5 -40,0 0,5 z"
         style="fill:#9b6f70;fill-opacity:1;fill-rule:nonzero;stroke:none"
         id="path54"
         inkscape:connector-curvature="0" /><path
         d="m 1865.1177,2248.3654 40,0 0,-5 -40,0 0,5 z"
         style="fill:#666666;fill-opacity:1;fill-rule:nonzero;stroke:none"
         id="path56"
         inkscape:connector-curvature="0" /><path
         d="m 1865.1177,2256.3654 40,0 0,-5 -40,0 0,5 z"
         style="fill:#8c8c8c;fill-opacity:1;fill-rule:nonzero;stroke:none"
         id="path58"
         inkscape:connector-curvature="0" /><path
         d="m 1865.1177,2264.3654 40,0 0,-5 -40,0 0,5 z"
         style="fill:#666666;fill-opacity:1;fill-rule:nonzero;stroke:none"
         id="path60"
         inkscape:connector-curvature="0" /><path
         d="m 1865.1177,2272.3654 40,0 0,-5 -40,0 0,5 z"
         style="fill:#757575;fill-opacity:1;fill-rule:nonzero;stroke:none"
         id="path62"
         inkscape:connector-curvature="0" /><path
         d="m 1865.1177,2280.3654 40,0 0,-5 -40,0 0,5 z"
         style="fill:#8f8f8f;fill-opacity:1;fill-rule:nonzero;stroke:none"
         id="path64"
         inkscape:connector-curvature="0" /><path
         d="m 1865.1177,2288.3654 40,0 0,-5 -40,0 0,5 z"
         style="fill:#7d7d7d;fill-opacity:1;fill-rule:nonzero;stroke:none"
         id="path66"
         inkscape:connector-curvature="0" /><path
         d="m 1865.1177,2296.3654 40,0 0,-5 -40,0 0,5 z"
         style="fill:#999999;fill-opacity:1;fill-rule:nonzero;stroke:none"
         id="path68"
         inkscape:connector-curvature="0" /><path
         d="m 1865.1177,2304.3654 40,0 0,-5 -40,0 0,5 z"
         style="fill:#858585;fill-opacity:1;fill-rule:nonzero;stroke:none"
         id="path70"
         inkscape:connector-curvature="0" /><path
         d="m 1912.8227,2293.6403 32.6199,0 -0.455,-8.68 -19.5649,0 -0.35,-6.6499 16.6006,0 -0.5813,-8.75 -16.5093,0 -0.35,-6.6499 19.5649,0 -0.4199,-8.82 -32.5849,0 2.0299,39.5498 z"
         style="fill:#231f20;fill-opacity:1;fill-rule:evenodd;stroke:none"
         id="path72"
         inkscape:connector-curvature="0" /><path
         d="m 1955.4724,2283.8907 11.526,0.1457 c 0,0 -0.209,-3.8176 -0.116,-3.7058 3.5652,4.2874 7.1695,4.4838 11.0252,4.4325 5.4547,-0.073 10.5374,-2.3978 10.4647,-8.0704 l -1.12,-22.6022 -11.6431,0 c 0,0 1.161,17.0744 0.7931,17.8737 -0.3678,0.7994 -1.336,2.8028 -3.5133,2.9115 -2.9112,0.1453 -5.4013,-2.4025 -6.6366,-5.8179 -0.025,-0.068 -0.77,-14.9673 -0.77,-14.9673 l -11.62,0 1.61,29.8002 z"
         style="fill:#231f20;fill-opacity:1;fill-rule:evenodd;stroke:none"
         id="path74"
         inkscape:connector-curvature="0" /><path
         d="m 1998.9485,2293.6403 23.5689,0 c 2.0347,-0.7267 8.8697,-2.8413 8.8697,-10.6939 0,-7.126 -3.1515,-15.3466 -18.7887,-13.9614 -0.072,0.01 -1.75,8.2887 -1.75,8.2887 l 3.6661,0 c 3.4364,0.6344 4.1466,1.5987 4.0012,4.5826 -0.1096,2.2511 -1.308,3.4155 -2.3253,3.4155 -1.0174,0 -6.322,-0.073 -6.322,-0.073 l -1.61,-31.1085 -11.41,0 2.1001,39.5498 z"
         style="fill:#231f20;fill-opacity:1;fill-rule:evenodd;stroke:none"
         id="path76"
         inkscape:connector-curvature="0" /><path
         d="m 2073.9178,2285.4193 c -5.2033,0.01 -10.99,0.031 -10.99,0.031 l -1.68,-31.3598 -11.5415,0 1.6715,31.3598 -11.4799,-2e-4 0.42,8.1902 34.0198,0 -0.4199,-8.221 z"
         style="fill:#231f20;fill-opacity:1;fill-rule:evenodd;stroke:none"
         id="path78"
         inkscape:connector-curvature="0" /><path
         d="m 1908.1177,2240.3654 40,0 0,-5 -40,0 0,5 z"
         style="fill:#636879;fill-opacity:1;fill-rule:nonzero;stroke:none"
         id="path80"
         inkscape:connector-curvature="0" /><path
         d="m 1951.1177,2240.3654 40,0 0,-5 -40,0 0,5 z"
         style="fill:#586284;fill-opacity:1;fill-rule:nonzero;stroke:none"
         id="path82"
         inkscape:connector-curvature="0" /><path
         d="m 1994.1177,2240.3654 40,0 0,-5 -40,0 0,5 z"
         style="fill:#4c5c90;fill-opacity:1;fill-rule:nonzero;stroke:none"
         id="path84"
         inkscape:connector-curvature="0" /><path
         d="m 1908.1177,2248.3654 40,0 0,-5 -40,0 0,5 z"
         style="fill:#526b7a;fill-opacity:1;fill-rule:nonzero;stroke:none"
         id="path86"
         inkscape:connector-curvature="0" /><path
         d="m 1951.1177,2248.3654 40,0 0,-5 -40,0 0,5 z"
         style="fill:#3d718f;fill-opacity:1;fill-rule:nonzero;stroke:none"
         id="path88"
         inkscape:connector-curvature="0" /><path
         d="m 1994.1177,2248.3654 40,0 0,-5 -40,0 0,5 z"
         style="fill:#2976a3;fill-opacity:1;fill-rule:nonzero;stroke:none"
         id="path90"
         inkscape:connector-curvature="0" /><path
         d="m 2037.1177,2248.3654 40,0 0,-5 -40,0 0,5 z"
         style="fill:#147cb8;fill-opacity:1;fill-rule:nonzero;stroke:none"
         id="path92"
         inkscape:connector-curvature="0" /><path
         d="m 2037.1177,2328.3654 40,0 0,-5 -40,0 0,5 z"
         style="fill:#e51975;fill-opacity:1;fill-rule:nonzero;stroke:none"
         id="path94"
         inkscape:connector-curvature="0" /><path
         d="m 1908.1177,2328.3654 40,0 0,-5 -40,0 0,5 z"
         style="fill:#99667d;fill-opacity:1;fill-rule:nonzero;stroke:none"
         id="path96"
         inkscape:connector-curvature="0" /><path
         d="m 2080.1177,2320.3654 40,0 0,-5 -40,0 0,5 z"
         style="fill:#f01920;fill-opacity:1;fill-rule:nonzero;stroke:none"
         id="path98"
         inkscape:connector-curvature="0" /><path
         d="m 1951.1177,2304.3654 40,0 0,-5 -40,0 0,5 z"
         style="fill:#b69054;fill-opacity:1;fill-rule:nonzero;stroke:none"
         id="path100"
         inkscape:connector-curvature="0" /><path
         d="m 1865.1177,2312.3654 40,0 0,-5 -40,0 0,5 z"
         style="fill:#999999;fill-opacity:1;fill-rule:nonzero;stroke:none"
         id="path102"
         inkscape:connector-curvature="0" /><path
         d="m 1994.1177,2320.3654 40,0 0,-5 -40,0 0,5 z"
         style="fill:#c54448;fill-opacity:1;fill-rule:nonzero;stroke:none"
         id="path104"
         inkscape:connector-curvature="0" /><path
         d="m 1865.1177,2320.3654 40,0 0,-5 -40,0 0,5 z"
         style="fill:#858585;fill-opacity:1;fill-rule:nonzero;stroke:none"
         id="path106"
         inkscape:connector-curvature="0" /><path
         d="m 1951.1177,2312.3654 40,0 0,-5 -40,0 0,5 z"
         style="fill:#b27c62;fill-opacity:1;fill-rule:nonzero;stroke:none"
         id="path108"
         inkscape:connector-curvature="0" /></g></g></svg>